<svg width="32" height="32" viewBox="0 0 32 32" fill="none" xmlns="http://www.w3.org/2000/svg">
<g clip-path="url(#clip0_309_281)">
<path d="M32 16.098C32 7.20605 24.836 -0.00195312 16 -0.00195312C7.16 4.68751e-05 -0.0039978 7.20605 -0.0039978 16.1C-0.0039978 24.134 5.848 30.794 13.496 32.002V20.752H9.436V16.1H13.5V12.55C13.5 8.51605 15.89 6.28805 19.544 6.28805C21.296 6.28805 23.126 6.60205 23.126 6.60205V10.562H21.108C19.122 10.562 18.502 11.804 18.502 13.078V16.098H22.938L22.23 20.75H18.5V32C26.148 30.792 32 24.132 32 16.098Z" fill="url(#paint0_linear_309_281)"/>
</g>
<defs>
<linearGradient id="paint0_linear_309_281" x1="-0.0039978" y1="-0.00195313" x2="32" y2="32.002" gradientUnits="userSpaceOnUse">
<stop stop-color="#3DA35D"/>
<stop offset="1" stop-color="#134611"/>
</linearGradient>
<clipPath id="clip0_309_281">
<rect width="32" height="32" fill="white"/>
</clipPath>
</defs>
</svg>
