<svg width="360" height="157" viewBox="0 0 360 157" fill="none" xmlns="http://www.w3.org/2000/svg">
<path d="M0.968018 17V0.488006H11.768V3.27201H4.37602V7.73601H10.88V10.52H4.37602V17H0.968018Z" fill="url(#paint0_linear_370_341)"/>
<path d="M12.282 17L17.874 0.488006H22.434L28.026 17H24.546L23.322 13.352H16.866L15.69 17H12.282ZM17.73 10.592H22.434L20.154 3.58401H20.01L17.73 10.592Z" fill="url(#paint1_linear_370_341)"/>
<path d="M41.0711 19.76L39.0551 16.784L42.1511 15.92L44.8391 19.688V19.76H41.0711ZM37.1831 17.192C35.8391 17.192 34.7271 17.112 33.8471 16.952C32.9831 16.792 32.3031 16.528 31.8071 16.16C31.3111 15.776 30.9511 15.264 30.7271 14.624C30.5031 13.968 30.3591 13.16 30.2951 12.2C30.2311 11.24 30.1991 10.088 30.1991 8.74401C30.1991 7.40001 30.2311 6.24801 30.2951 5.28801C30.3591 4.32801 30.5031 3.52801 30.7271 2.88801C30.9511 2.23201 31.3111 1.72001 31.8071 1.35201C32.3031 0.968005 32.9831 0.696005 33.8471 0.536005C34.7271 0.376005 35.8391 0.296005 37.1831 0.296005C38.5271 0.296005 39.6311 0.376005 40.4951 0.536005C41.3751 0.696005 42.0631 0.968005 42.5591 1.35201C43.0551 1.72001 43.4151 2.23201 43.6391 2.88801C43.8791 3.52801 44.0311 4.32801 44.0951 5.28801C44.1591 6.24801 44.1911 7.40001 44.1911 8.74401C44.1911 10.088 44.1591 11.24 44.0951 12.2C44.0311 13.16 43.8791 13.968 43.6391 14.624C43.4151 15.264 43.0551 15.776 42.5591 16.16C42.0631 16.528 41.3751 16.792 40.4951 16.952C39.6311 17.112 38.5271 17.192 37.1831 17.192ZM37.1831 14.408C37.8871 14.408 38.4551 14.384 38.8871 14.336C39.3351 14.288 39.6871 14.176 39.9431 14C40.1991 13.824 40.3831 13.536 40.4951 13.136C40.6231 12.736 40.7031 12.184 40.7351 11.48C40.7671 10.776 40.7831 9.86401 40.7831 8.74401C40.7831 7.62401 40.7671 6.71201 40.7351 6.00801C40.7031 5.30401 40.6231 4.75201 40.4951 4.35201C40.3831 3.95201 40.1991 3.66401 39.9431 3.48801C39.6871 3.31201 39.3351 3.20001 38.8871 3.15201C38.4551 3.10401 37.8871 3.08001 37.1831 3.08001C36.4951 3.08001 35.9271 3.10401 35.4791 3.15201C35.0471 3.20001 34.7031 3.31201 34.4471 3.48801C34.1911 3.66401 33.9991 3.95201 33.8711 4.35201C33.7591 4.75201 33.6871 5.30401 33.6551 6.00801C33.6231 6.71201 33.6071 7.62401 33.6071 8.74401C33.6071 9.86401 33.6231 10.776 33.6551 11.48C33.6871 12.184 33.7591 12.736 33.8711 13.136C33.9991 13.536 34.1911 13.824 34.4471 14C34.7031 14.176 35.0471 14.288 35.4791 14.336C35.9271 14.384 36.4951 14.408 37.1831 14.408Z" fill="url(#paint2_linear_370_341)"/>
<path d="M23.4 77V32.968H42.664C45.48 32.968 47.72 33.3307 49.384 34.056C51.0907 34.7387 52.3494 35.6987 53.16 36.936C54.0134 38.1733 54.5894 39.6453 54.888 41.352C55.1867 43.016 55.336 44.8507 55.336 46.856C55.336 48.776 55.1867 50.5893 54.888 52.296C54.632 53.96 54.0774 55.432 53.224 56.712C52.3707 57.992 51.0907 58.9947 49.384 59.72C47.6774 60.4453 45.3947 60.808 42.536 60.808H28.904V77H23.4ZM28.904 56.008H40.744C42.8347 56.008 44.4774 55.8373 45.672 55.496C46.9094 55.1547 47.8267 54.6213 48.424 53.896C49.0214 53.128 49.4054 52.168 49.576 51.016C49.7467 49.864 49.832 48.4773 49.832 46.856C49.832 45.2347 49.7467 43.848 49.576 42.696C49.448 41.544 49.0854 40.6053 48.488 39.88C47.9334 39.1547 47.0374 38.6213 45.8 38.28C44.6054 37.896 42.9627 37.704 40.872 37.704H28.904V56.008Z" fill="#96E072"/>
<path d="M78.718 77.512C76.0727 77.512 73.854 77.3413 72.062 77C70.3127 76.6587 68.9047 76.104 67.838 75.336C66.7714 74.5253 65.9607 73.48 65.406 72.2C64.8514 70.8773 64.4887 69.2773 64.318 67.4C64.1474 65.5227 64.062 63.304 64.062 60.744C64.062 57.7147 64.19 55.1333 64.446 53C64.702 50.824 65.278 49.0747 66.174 47.752C67.1127 46.3867 68.5633 45.4053 70.526 44.808C72.4887 44.168 75.134 43.848 78.462 43.848C80.9794 43.848 83.0274 44.04 84.606 44.424C86.2274 44.808 87.5074 45.4053 88.446 46.216C89.3847 47.0267 90.0674 48.1147 90.494 49.48C90.9634 50.8027 91.262 52.4027 91.39 54.28C91.518 56.1147 91.582 58.248 91.582 60.68V62.408H69.246C69.246 64.6267 69.3527 66.44 69.566 67.848C69.7794 69.256 70.206 70.344 70.846 71.112C71.5287 71.88 72.574 72.4133 73.982 72.712C75.4327 73.0107 77.3954 73.16 79.87 73.16C80.894 73.16 82.0247 73.1387 83.262 73.096C84.4994 73.0107 85.7367 72.904 86.974 72.776C88.2114 72.648 89.3207 72.52 90.302 72.392V76.616C89.406 76.7867 88.2967 76.936 86.974 77.064C85.694 77.192 84.3287 77.2987 82.878 77.384C81.47 77.4693 80.0834 77.512 78.718 77.512ZM86.526 59.784V58.056C86.526 55.8373 86.398 54.088 86.142 52.808C85.886 51.4853 85.438 50.504 84.798 49.864C84.2007 49.1813 83.3687 48.7333 82.302 48.52C81.2354 48.3067 79.9127 48.2 78.334 48.2C76.286 48.2 74.6647 48.3493 73.47 48.648C72.2753 48.904 71.3794 49.3947 70.782 50.12C70.1847 50.8453 69.7794 51.8907 69.566 53.256C69.3527 54.6213 69.246 56.4347 69.246 58.696H87.742L86.526 59.784Z" fill="#96E072"/>
<path d="M102.308 77V44.36H106.98L107.236 50.632H107.62C108.175 48.7973 108.964 47.3893 109.988 46.408C111.012 45.4267 112.249 44.7653 113.7 44.424C115.151 44.04 116.751 43.848 118.5 43.848V48.968C115.556 48.968 113.295 49.4373 111.716 50.376C110.137 51.3147 109.049 52.7653 108.452 54.728C107.855 56.6907 107.556 59.1653 107.556 62.152V77H102.308Z" fill="#96E072"/>
<path d="M138.616 90.184C137.25 90.184 135.842 90.1413 134.392 90.056C132.984 90.0133 131.64 89.9493 130.36 89.864C129.08 89.7787 127.992 89.6933 127.096 89.608V85.384C128.12 85.4693 129.25 85.5333 130.488 85.576C131.725 85.6613 132.941 85.704 134.136 85.704C135.373 85.7467 136.482 85.768 137.464 85.768C139.938 85.768 141.88 85.5973 143.288 85.256C144.696 84.9147 145.762 84.3173 146.488 83.464C147.213 82.6107 147.661 81.416 147.832 79.88C148.045 78.344 148.152 76.3813 148.152 73.992V72.648H147.832C147.277 73.8427 146.509 74.7813 145.528 75.464C144.546 76.1467 143.373 76.6373 142.008 76.936C140.642 77.192 139.085 77.32 137.336 77.32C134.946 77.32 132.962 77.064 131.384 76.552C129.848 76.04 128.632 75.1867 127.736 73.992C126.84 72.7547 126.2 71.048 125.816 68.872C125.474 66.696 125.304 63.9653 125.304 60.68C125.304 57.352 125.496 54.6 125.88 52.424C126.264 50.248 126.904 48.5413 127.8 47.304C128.696 46.0667 129.912 45.192 131.448 44.68C133.026 44.1253 135.01 43.848 137.4 43.848C138.85 43.848 140.28 43.976 141.688 44.232C143.096 44.4453 144.354 44.936 145.464 45.704C146.616 46.472 147.49 47.5813 148.088 49.032H148.472L148.728 44.36H153.4V72.776C153.4 75.9333 153.229 78.6213 152.888 80.84C152.589 83.0587 151.949 84.8507 150.968 86.216C149.986 87.5813 148.514 88.584 146.552 89.224C144.589 89.864 141.944 90.184 138.616 90.184ZM139.384 72.776C141.517 72.776 143.202 72.4987 144.44 71.944C145.677 71.3467 146.573 70.4293 147.128 69.192C147.597 68.168 147.874 66.952 147.96 65.544C148.088 64.136 148.152 62.4933 148.152 60.616C148.152 58.824 148.109 57.2453 148.024 55.88C147.938 54.472 147.661 53.2773 147.192 52.296C146.637 50.9307 145.72 49.9493 144.44 49.352C143.16 48.7547 141.474 48.456 139.384 48.456C137.421 48.456 135.842 48.6053 134.648 48.904C133.496 49.16 132.621 49.6933 132.024 50.504C131.426 51.3147 131.021 52.5307 130.808 54.152C130.594 55.7733 130.488 57.928 130.488 60.616C130.488 63.304 130.594 65.4587 130.808 67.08C131.021 68.7013 131.426 69.9173 132.024 70.728C132.621 71.5387 133.496 72.0933 134.648 72.392C135.842 72.648 137.421 72.776 139.384 72.776Z" fill="#96E072"/>
<path d="M176.686 77.512C174.296 77.512 172.355 77.256 170.862 76.744C169.411 76.232 168.302 75.464 167.534 74.44C166.766 73.416 166.232 72.1147 165.934 70.536C165.678 68.9147 165.55 66.9947 165.55 64.776V44.36H170.798V62.984C170.798 65.16 170.883 66.9093 171.054 68.232C171.224 69.5547 171.587 70.5573 172.142 71.24C172.739 71.88 173.571 72.3067 174.638 72.52C175.704 72.7333 177.091 72.84 178.798 72.84C180.931 72.84 182.595 72.584 183.79 72.072C184.984 71.5173 185.838 70.7493 186.35 69.768C186.904 68.744 187.246 67.528 187.374 66.12C187.544 64.6693 187.63 63.0267 187.63 61.192V44.36H192.814V77H188.142L187.95 72.328H187.502C187.075 73.352 186.435 74.248 185.582 75.016C184.771 75.784 183.64 76.4027 182.19 76.872C180.739 77.2987 178.904 77.512 176.686 77.512Z" fill="#96E072"/>
<path d="M205.014 77V44.36H209.75L209.942 49.032H210.326C210.795 48.008 211.435 47.112 212.246 46.344C213.099 45.576 214.23 44.9787 215.638 44.552C217.089 44.0827 218.923 43.848 221.142 43.848C223.574 43.848 225.515 44.104 226.966 44.616C228.417 45.128 229.526 45.896 230.294 46.92C231.105 47.944 231.638 49.2667 231.894 50.888C232.15 52.4667 232.278 54.3653 232.278 56.584V77H227.094V58.376C227.094 56.1573 226.987 54.408 226.774 53.128C226.603 51.8053 226.241 50.824 225.686 50.184C225.131 49.5013 224.321 49.0533 223.254 48.84C222.187 48.6267 220.779 48.52 219.03 48.52C216.939 48.52 215.297 48.7973 214.102 49.352C212.907 49.864 212.033 50.632 211.478 51.656C210.923 52.6373 210.582 53.8533 210.454 55.304C210.326 56.712 210.262 58.3333 210.262 60.168V77H205.014Z" fill="#96E072"/>
<path d="M247.231 77V48.776H240.639V44.36H247.231V34.888H252.415V44.36H260.223V48.776H252.415V77H247.231Z" fill="#96E072"/>
<path d="M276.711 77.512C274.322 77.512 272.316 77.2347 270.695 76.68C269.116 76.1253 267.922 75.1653 267.111 73.8C266.343 72.4347 265.959 70.5147 265.959 68.04C265.959 65.5653 266.236 63.624 266.791 62.216C267.388 60.7653 268.412 59.7413 269.863 59.144C271.314 58.5467 273.34 58.248 275.943 58.248C276.37 58.248 277.031 58.2693 277.927 58.312C278.866 58.312 279.932 58.3333 281.127 58.376C282.322 58.376 283.516 58.3973 284.711 58.44C285.948 58.44 287.079 58.4613 288.103 58.504V56.456C288.103 54.536 287.975 53.0427 287.719 51.976C287.506 50.8667 287.036 50.056 286.311 49.544C285.586 48.9893 284.562 48.648 283.239 48.52C281.959 48.3493 280.252 48.264 278.119 48.264C277.18 48.264 276.071 48.3067 274.791 48.392C273.511 48.4347 272.252 48.52 271.015 48.648C269.82 48.7333 268.86 48.84 268.135 48.968V44.744C269.756 44.4453 271.57 44.232 273.575 44.104C275.623 43.9333 277.735 43.848 279.911 43.848C282.215 43.848 284.156 43.9973 285.735 44.296C287.356 44.552 288.658 44.9787 289.639 45.576C290.663 46.1733 291.431 46.9627 291.943 47.944C292.455 48.9253 292.796 50.12 292.967 51.528C293.18 52.936 293.287 54.5787 293.287 56.456V77H288.615L288.423 72.392H288.039C287.356 73.8853 286.375 75.016 285.095 75.784C283.858 76.5093 282.492 76.9787 280.999 77.192C279.506 77.4053 278.076 77.512 276.711 77.512ZM278.631 73.224C279.868 73.224 281.02 73.16 282.087 73.032C283.154 72.8613 284.092 72.5627 284.903 72.136C285.714 71.7093 286.354 71.0693 286.823 70.216C287.292 69.32 287.612 68.36 287.783 67.336C287.996 66.2693 288.103 65.032 288.103 63.624V61.96H277.223C275.559 61.96 274.279 62.088 273.383 62.344C272.487 62.6 271.868 63.1333 271.527 63.944C271.228 64.7547 271.079 65.9707 271.079 67.592C271.079 69.1707 271.271 70.3653 271.655 71.176C272.039 71.9867 272.764 72.5413 273.831 72.84C274.94 73.096 276.54 73.224 278.631 73.224Z" fill="#96E072"/>
<path d="M316.413 77.512C315.175 77.512 313.853 77.4693 312.445 77.384C311.037 77.2987 309.65 77.192 308.285 77.064C306.919 76.9787 305.682 76.8507 304.573 76.68V72.456C305.597 72.5413 306.578 72.6267 307.517 72.712C308.498 72.7973 309.458 72.8827 310.397 72.968C311.335 73.0107 312.274 73.0533 313.213 73.096C314.151 73.096 315.111 73.096 316.093 73.096C318.311 73.096 319.911 72.9467 320.893 72.648C321.917 72.3067 322.578 71.752 322.877 70.984C323.218 70.216 323.389 69.2133 323.389 67.976C323.389 66.568 323.261 65.544 323.005 64.904C322.791 64.264 322.386 63.8587 321.789 63.688C321.234 63.4747 320.381 63.304 319.229 63.176L310.781 62.216C308.775 62.0027 307.261 61.576 306.237 60.936C305.213 60.2533 304.509 59.2933 304.125 58.056C303.741 56.8187 303.549 55.2613 303.549 53.384C303.549 51.2507 303.847 49.544 304.445 48.264C305.042 46.984 305.895 46.024 307.005 45.384C308.114 44.744 309.458 44.3387 311.037 44.168C312.615 43.9547 314.386 43.848 316.349 43.848C317.458 43.848 318.631 43.8907 319.869 43.976C321.106 44.0613 322.322 44.168 323.517 44.296C324.711 44.424 325.735 44.5733 326.589 44.744V48.968C325.479 48.7973 324.349 48.6693 323.197 48.584C322.087 48.456 320.935 48.3707 319.741 48.328C318.589 48.2853 317.415 48.264 316.221 48.264C314.599 48.264 313.213 48.3493 312.061 48.52C310.909 48.6907 310.034 49.1173 309.437 49.8C308.882 50.4827 308.605 51.6133 308.605 53.192C308.605 54.4293 308.69 55.368 308.861 56.008C309.074 56.6053 309.479 57.032 310.077 57.288C310.674 57.5013 311.506 57.672 312.573 57.8L321.405 58.76C323.154 58.9307 324.519 59.272 325.501 59.784C326.525 60.2533 327.25 61.1067 327.677 62.344C328.146 63.5813 328.381 65.4373 328.381 67.912C328.381 69.96 328.125 71.624 327.613 72.904C327.143 74.1413 326.397 75.1013 325.373 75.784C324.349 76.4667 323.09 76.9147 321.597 77.128C320.103 77.384 318.375 77.512 316.413 77.512Z" fill="#96E072"/>
<path d="M23.4 144V99.968H50.728V104.704H28.904V120.384H48.36V125.12H28.904V144H23.4Z" fill="#96E072"/>
<path d="M59.8435 144V111.36H64.5155L64.7715 117.632H65.1555C65.7102 115.797 66.4995 114.389 67.5235 113.408C68.5475 112.427 69.7849 111.765 71.2355 111.424C72.6862 111.04 74.2862 110.848 76.0355 110.848V115.968C73.0915 115.968 70.8302 116.437 69.2515 117.376C67.6729 118.315 66.5849 119.765 65.9875 121.728C65.3902 123.691 65.0915 126.165 65.0915 129.152V144H59.8435Z" fill="#96E072"/>
<path d="M97.495 144.512C94.8497 144.512 92.631 144.341 90.839 144C89.0897 143.659 87.6817 143.104 86.615 142.336C85.5484 141.525 84.7377 140.48 84.183 139.2C83.6284 137.877 83.2657 136.277 83.095 134.4C82.9243 132.523 82.839 130.304 82.839 127.744C82.839 124.715 82.967 122.133 83.223 120C83.479 117.824 84.055 116.075 84.951 114.752C85.8897 113.387 87.3403 112.405 89.303 111.808C91.2657 111.168 93.911 110.848 97.239 110.848C99.7564 110.848 101.804 111.04 103.383 111.424C105.004 111.808 106.284 112.405 107.223 113.216C108.162 114.027 108.844 115.115 109.271 116.48C109.74 117.803 110.039 119.403 110.167 121.28C110.295 123.115 110.359 125.248 110.359 127.68V129.408H88.023C88.023 131.627 88.1297 133.44 88.343 134.848C88.5564 136.256 88.983 137.344 89.623 138.112C90.3057 138.88 91.351 139.413 92.759 139.712C94.2097 140.011 96.1724 140.16 98.647 140.16C99.671 140.16 100.802 140.139 102.039 140.096C103.276 140.011 104.514 139.904 105.751 139.776C106.988 139.648 108.098 139.52 109.079 139.392V143.616C108.183 143.787 107.074 143.936 105.751 144.064C104.471 144.192 103.106 144.299 101.655 144.384C100.247 144.469 98.8604 144.512 97.495 144.512ZM105.303 126.784V125.056C105.303 122.837 105.175 121.088 104.919 119.808C104.663 118.485 104.215 117.504 103.575 116.864C102.978 116.181 102.146 115.733 101.079 115.52C100.012 115.307 98.6897 115.2 97.111 115.2C95.063 115.2 93.4417 115.349 92.247 115.648C91.0524 115.904 90.1564 116.395 89.559 117.12C88.9617 117.845 88.5564 118.891 88.343 120.256C88.1297 121.621 88.023 123.435 88.023 125.696H106.519L105.303 126.784Z" fill="#96E072"/>
<path d="M142.589 156.736V139.84H142.269C141.672 141.035 140.861 141.973 139.837 142.656C138.856 143.339 137.682 143.808 136.317 144.064C134.952 144.363 133.394 144.512 131.645 144.512C129.298 144.512 127.357 144.256 125.821 143.744C124.285 143.232 123.069 142.357 122.173 141.12C121.277 139.84 120.637 138.112 120.253 135.936C119.912 133.76 119.741 131.029 119.741 127.744C119.741 124.416 119.933 121.664 120.317 119.488C120.701 117.269 121.341 115.541 122.237 114.304C123.133 113.067 124.349 112.192 125.885 111.68C127.464 111.125 129.426 110.848 131.773 110.848C133.266 110.848 134.717 110.976 136.125 111.232C137.533 111.445 138.792 111.936 139.901 112.704C141.053 113.472 141.928 114.581 142.525 116.032H142.909L143.165 111.36H147.837V156.736H142.589ZM133.821 139.84C136.04 139.84 137.789 139.52 139.069 138.88C140.349 138.24 141.245 137.216 141.757 135.808C142.141 134.827 142.376 133.675 142.461 132.352C142.546 130.987 142.589 129.429 142.589 127.68C142.589 125.845 142.525 124.203 142.397 122.752C142.312 121.301 142.013 120 141.501 118.848C140.989 117.696 140.093 116.843 138.813 116.288C137.576 115.733 135.912 115.456 133.821 115.456C131.858 115.456 130.28 115.605 129.085 115.904C127.933 116.16 127.058 116.693 126.461 117.504C125.864 118.315 125.458 119.531 125.245 121.152C125.032 122.773 124.925 124.949 124.925 127.68C124.925 130.411 125.032 132.587 125.245 134.208C125.458 135.787 125.864 137.003 126.461 137.856C127.058 138.667 127.933 139.2 129.085 139.456C130.28 139.712 131.858 139.84 133.821 139.84Z" fill="#96E072"/>
<path d="M171.186 144.512C168.796 144.512 166.855 144.256 165.362 143.744C163.911 143.232 162.802 142.464 162.034 141.44C161.266 140.416 160.732 139.115 160.434 137.536C160.178 135.915 160.05 133.995 160.05 131.776V111.36H165.298V129.984C165.298 132.16 165.383 133.909 165.554 135.232C165.724 136.555 166.087 137.557 166.642 138.24C167.239 138.88 168.071 139.307 169.138 139.52C170.204 139.733 171.591 139.84 173.298 139.84C175.431 139.84 177.095 139.584 178.29 139.072C179.484 138.517 180.338 137.749 180.85 136.768C181.404 135.744 181.746 134.528 181.874 133.12C182.044 131.669 182.13 130.027 182.13 128.192V111.36H187.314V144H182.642L182.45 139.328H182.002C181.575 140.352 180.935 141.248 180.082 142.016C179.271 142.784 178.14 143.403 176.69 143.872C175.239 144.299 173.404 144.512 171.186 144.512Z" fill="#96E072"/>
<path d="M212.826 144.512C210.181 144.512 207.962 144.341 206.17 144C204.421 143.659 203.013 143.104 201.946 142.336C200.879 141.525 200.069 140.48 199.514 139.2C198.959 137.877 198.597 136.277 198.426 134.4C198.255 132.523 198.17 130.304 198.17 127.744C198.17 124.715 198.298 122.133 198.554 120C198.81 117.824 199.386 116.075 200.282 114.752C201.221 113.387 202.671 112.405 204.634 111.808C206.597 111.168 209.242 110.848 212.57 110.848C215.087 110.848 217.135 111.04 218.714 111.424C220.335 111.808 221.615 112.405 222.554 113.216C223.493 114.027 224.175 115.115 224.602 116.48C225.071 117.803 225.37 119.403 225.498 121.28C225.626 123.115 225.69 125.248 225.69 127.68V129.408H203.354C203.354 131.627 203.461 133.44 203.674 134.848C203.887 136.256 204.314 137.344 204.954 138.112C205.637 138.88 206.682 139.413 208.09 139.712C209.541 140.011 211.503 140.16 213.978 140.16C215.002 140.16 216.133 140.139 217.37 140.096C218.607 140.011 219.845 139.904 221.082 139.776C222.319 139.648 223.429 139.52 224.41 139.392V143.616C223.514 143.787 222.405 143.936 221.082 144.064C219.802 144.192 218.437 144.299 216.986 144.384C215.578 144.469 214.191 144.512 212.826 144.512ZM220.634 126.784V125.056C220.634 122.837 220.506 121.088 220.25 119.808C219.994 118.485 219.546 117.504 218.906 116.864C218.309 116.181 217.477 115.733 216.41 115.52C215.343 115.307 214.021 115.2 212.442 115.2C210.394 115.2 208.773 115.349 207.578 115.648C206.383 115.904 205.487 116.395 204.89 117.12C204.293 117.845 203.887 118.891 203.674 120.256C203.461 121.621 203.354 123.435 203.354 125.696H221.85L220.634 126.784Z" fill="#96E072"/>
<path d="M236.416 144V111.36H241.152L241.344 116.032H241.728C242.197 115.008 242.837 114.112 243.648 113.344C244.501 112.576 245.632 111.979 247.04 111.552C248.491 111.083 250.325 110.848 252.544 110.848C254.976 110.848 256.917 111.104 258.368 111.616C259.819 112.128 260.928 112.896 261.696 113.92C262.507 114.944 263.04 116.267 263.296 117.888C263.552 119.467 263.68 121.365 263.68 123.584V144H258.496V125.376C258.496 123.157 258.389 121.408 258.176 120.128C258.005 118.805 257.643 117.824 257.088 117.184C256.533 116.501 255.723 116.053 254.656 115.84C253.589 115.627 252.181 115.52 250.432 115.52C248.341 115.52 246.699 115.797 245.504 116.352C244.309 116.864 243.435 117.632 242.88 118.656C242.325 119.637 241.984 120.853 241.856 122.304C241.728 123.712 241.664 125.333 241.664 127.168V144H236.416Z" fill="#96E072"/>
<path d="M278.633 144V115.776H272.041V111.36H278.633V101.888H283.817V111.36H291.625V115.776H283.817V144H278.633Z" fill="#96E072"/>
<path d="M312.97 144.512C310.324 144.512 308.106 144.341 306.314 144C304.564 143.659 303.156 143.104 302.09 142.336C301.023 141.525 300.212 140.48 299.658 139.2C299.103 137.877 298.74 136.277 298.57 134.4C298.399 132.523 298.314 130.304 298.314 127.744C298.314 124.715 298.442 122.133 298.698 120C298.954 117.824 299.53 116.075 300.426 114.752C301.364 113.387 302.815 112.405 304.778 111.808C306.74 111.168 309.386 110.848 312.714 110.848C315.231 110.848 317.279 111.04 318.858 111.424C320.479 111.808 321.759 112.405 322.698 113.216C323.636 114.027 324.319 115.115 324.746 116.48C325.215 117.803 325.514 119.403 325.642 121.28C325.77 123.115 325.834 125.248 325.834 127.68V129.408H303.498C303.498 131.627 303.604 133.44 303.818 134.848C304.031 136.256 304.458 137.344 305.098 138.112C305.78 138.88 306.826 139.413 308.234 139.712C309.684 140.011 311.647 140.16 314.122 140.16C315.146 140.16 316.276 140.139 317.514 140.096C318.751 140.011 319.988 139.904 321.226 139.776C322.463 139.648 323.572 139.52 324.554 139.392V143.616C323.658 143.787 322.548 143.936 321.226 144.064C319.946 144.192 318.58 144.299 317.13 144.384C315.722 144.469 314.335 144.512 312.97 144.512ZM320.778 126.784V125.056C320.778 122.837 320.65 121.088 320.394 119.808C320.138 118.485 319.69 117.504 319.05 116.864C318.452 116.181 317.62 115.733 316.554 115.52C315.487 115.307 314.164 115.2 312.586 115.2C310.538 115.2 308.916 115.349 307.722 115.648C306.527 115.904 305.631 116.395 305.034 117.12C304.436 117.845 304.031 118.891 303.818 120.256C303.604 121.621 303.498 123.435 303.498 125.696H321.994L320.778 126.784Z" fill="#96E072"/>
<path d="M347.44 144.512C346.202 144.512 344.88 144.469 343.472 144.384C342.064 144.299 340.677 144.192 339.312 144.064C337.946 143.979 336.709 143.851 335.6 143.68V139.456C336.624 139.541 337.605 139.627 338.544 139.712C339.525 139.797 340.485 139.883 341.424 139.968C342.362 140.011 343.301 140.053 344.24 140.096C345.178 140.096 346.138 140.096 347.12 140.096C349.338 140.096 350.938 139.947 351.92 139.648C352.944 139.307 353.605 138.752 353.904 137.984C354.245 137.216 354.416 136.213 354.416 134.976C354.416 133.568 354.288 132.544 354.032 131.904C353.818 131.264 353.413 130.859 352.816 130.688C352.261 130.475 351.408 130.304 350.256 130.176L341.808 129.216C339.802 129.003 338.288 128.576 337.264 127.936C336.24 127.253 335.536 126.293 335.152 125.056C334.768 123.819 334.576 122.261 334.576 120.384C334.576 118.251 334.874 116.544 335.472 115.264C336.069 113.984 336.922 113.024 338.032 112.384C339.141 111.744 340.485 111.339 342.064 111.168C343.642 110.955 345.413 110.848 347.376 110.848C348.485 110.848 349.658 110.891 350.896 110.976C352.133 111.061 353.349 111.168 354.544 111.296C355.738 111.424 356.762 111.573 357.616 111.744V115.968C356.506 115.797 355.376 115.669 354.224 115.584C353.114 115.456 351.962 115.371 350.768 115.328C349.616 115.285 348.442 115.264 347.248 115.264C345.626 115.264 344.24 115.349 343.088 115.52C341.936 115.691 341.061 116.117 340.464 116.8C339.909 117.483 339.632 118.613 339.632 120.192C339.632 121.429 339.717 122.368 339.888 123.008C340.101 123.605 340.506 124.032 341.104 124.288C341.701 124.501 342.533 124.672 343.6 124.8L352.432 125.76C354.181 125.931 355.546 126.272 356.528 126.784C357.552 127.253 358.277 128.107 358.704 129.344C359.173 130.581 359.408 132.437 359.408 134.912C359.408 136.96 359.152 138.624 358.64 139.904C358.17 141.141 357.424 142.101 356.4 142.784C355.376 143.467 354.117 143.915 352.624 144.128C351.13 144.384 349.402 144.512 347.44 144.512Z" fill="#96E072"/>
<defs>
<linearGradient id="paint0_linear_370_341" x1="0.968018" y1="0.296005" x2="165.284" y2="273.493" gradientUnits="userSpaceOnUse">
<stop stop-color="#3DA35D"/>
<stop offset="1" stop-color="#134611"/>
</linearGradient>
<linearGradient id="paint1_linear_370_341" x1="0.968018" y1="0.296005" x2="165.284" y2="273.493" gradientUnits="userSpaceOnUse">
<stop stop-color="#3DA35D"/>
<stop offset="1" stop-color="#134611"/>
</linearGradient>
<linearGradient id="paint2_linear_370_341" x1="0.968018" y1="0.296005" x2="165.284" y2="273.493" gradientUnits="userSpaceOnUse">
<stop stop-color="#3DA35D"/>
<stop offset="1" stop-color="#134611"/>
</linearGradient>
</defs>
</svg>
