<svg width="120" height="70" viewBox="0 0 120 70" fill="none" xmlns="http://www.w3.org/2000/svg">
<path d="M0.419985 13.5986C0.419985 9.31057 1.59525 5.97214 3.94579 3.58328C6.29632 1.19443 9.56944 0 13.7651 0C18.0666 0 21.3809 1.17651 23.7079 3.52954C26.0349 5.87062 27.1984 9.15529 27.1984 13.3836C27.1984 16.4533 26.6872 18.9735 25.6647 20.9443C24.654 22.9032 23.1849 24.432 21.2575 25.5309C19.3418 26.6178 16.9501 27.1613 14.0825 27.1613C11.1678 27.1613 8.75263 26.6895 6.83694 25.7459C4.93301 24.8023 3.38753 23.3093 2.20051 21.2668C1.01349 19.2243 0.419985 16.6682 0.419985 13.5986ZM8.40592 13.6344C8.40592 16.286 8.88778 18.1911 9.8515 19.3497C10.827 20.5083 12.1491 21.0876 13.818 21.0876C15.5339 21.0876 16.862 20.5203 17.8022 19.3856C18.7424 18.2509 19.2125 16.2144 19.2125 13.2761C19.2125 10.8036 18.7189 9.00002 17.7317 7.86531C16.7562 6.71866 15.4281 6.14533 13.7475 6.14533C12.1374 6.14533 10.8446 6.72463 9.86913 7.88323C8.89366 9.04182 8.40592 10.9589 8.40592 13.6344Z" fill="#F3EEEE"/>
<path d="M33.358 0.447911H40.8151L50.5463 14.9781V0.447911H58.0739V26.7134H50.5463L40.868 12.2907V26.7134H33.358V0.447911Z" fill="#F3EEEE"/>
<path d="M65.2912 0.447911H77.1555C79.4943 0.447911 81.3806 0.770406 82.8144 1.4154C84.26 2.06039 85.4529 2.98607 86.3931 4.19244C87.3333 5.39882 88.015 6.80227 88.4381 8.4028C88.8612 10.0033 89.0727 11.6994 89.0727 13.4911C89.0727 16.298 88.7554 18.4778 88.1207 20.0306C87.4979 21.5714 86.6282 22.8673 85.5117 23.9184C84.3951 24.9576 83.1964 25.6503 81.9153 25.9967C80.1642 26.4745 78.5776 26.7134 77.1555 26.7134H65.2912V0.447911ZM73.2771 6.39616V20.7472H75.2339C76.9028 20.7472 78.0898 20.5621 78.795 20.1918C79.5002 19.8096 80.0525 19.1527 80.4521 18.221C80.8517 17.2774 81.0515 15.7545 81.0515 13.6523C81.0515 10.8693 80.6049 8.96418 79.7117 7.93698C78.8185 6.90977 77.3377 6.39616 75.2692 6.39616H73.2771Z" fill="#F3EEEE"/>
<path d="M109.441 22.3776H100.345L99.093 26.7134H90.9308L100.644 0.447911H109.353L119.067 26.7134H110.711L109.441 22.3776ZM107.767 16.6981L104.911 7.25615L102.072 16.6981H107.767Z" fill="#F3EEEE"/>
<path d="M0 30.5918H7.86461L13.34 48.3817L18.7324 30.5918H26.3647L17.3386 55.3122H9.19197L0 30.5918Z" fill="#F3EEEE"/>
<path d="M27.1379 30.5918H47.2806V35.8697H34.6706V39.7987H46.368V44.8406H34.6706V49.7139H47.6456V55.3122H27.1379V30.5918Z" fill="#F3EEEE"/>
<path d="M50.1112 55.3122V30.5918H62.6381C64.961 30.5918 66.7364 30.7941 67.9642 31.1988C69.192 31.6035 70.182 32.3567 70.9341 33.4584C71.6863 34.5488 72.0624 35.881 72.0624 37.4548C72.0624 38.8263 71.7748 40.0123 71.1996 41.0128C70.6244 42.0021 69.8335 42.8059 68.8269 43.4241C68.1854 43.8176 67.306 44.1436 66.1888 44.4022C67.0848 44.7057 67.7374 45.0092 68.1467 45.3127C68.4232 45.5151 68.8214 45.9479 69.3413 46.6112C69.8722 47.2744 70.2262 47.7859 70.4032 48.1456L74.0368 55.3122H65.5417L61.5265 47.7578C61.0176 46.7798 60.5641 46.1446 60.1659 45.8523C59.6239 45.4701 59.01 45.279 58.3242 45.279H57.6605V55.3122H50.1112ZM57.6605 40.6081H60.8296C61.1725 40.6081 61.8362 40.4957 62.8206 40.2709C63.3184 40.1697 63.7221 39.9111 64.0319 39.4952C64.3526 39.0792 64.513 38.6015 64.513 38.0619C64.513 37.2637 64.2641 36.651 63.7664 36.2239C63.2686 35.7967 62.3339 35.5831 60.9623 35.5831H57.6605V40.6081Z" fill="#F3EEEE"/>
<path d="M74.8598 30.5918H86.0262C88.2274 30.5918 90.0028 30.8953 91.3522 31.5023C92.7128 32.1094 93.8355 32.9806 94.7204 34.116C95.6053 35.2514 96.2469 36.5723 96.6451 38.0787C97.0433 39.5851 97.2424 41.1814 97.2424 42.8677C97.2424 45.5095 96.9437 47.5611 96.3464 49.0225C95.7602 50.4727 94.9416 51.6924 93.8908 52.6817C92.84 53.6597 91.7117 54.3117 90.5061 54.6377C88.8579 55.0874 87.3646 55.3122 86.0262 55.3122H74.8598V30.5918ZM82.376 36.1901V49.697H84.2177C85.7884 49.697 86.9056 49.5228 87.5693 49.1743C88.2329 48.8145 88.7528 48.1962 89.1289 47.3194C89.505 46.4313 89.693 44.998 89.693 43.0194C89.693 40.4001 89.2727 38.6071 88.432 37.6403C87.5914 36.6735 86.1977 36.1901 84.2509 36.1901H82.376Z" fill="#F3EEEE"/>
<path d="M99.4923 30.5918H119.635V35.8697H107.025V39.7987H118.722V44.8406H107.025V49.7139H120V55.3122H99.4923V30.5918Z" fill="#F3EEEE"/>
<path d="M18.7632 67.6477L19.6171 67.5718C19.6576 67.9196 19.7509 68.2057 19.8971 68.4302C20.0465 68.6515 20.2767 68.8317 20.5878 68.9709C20.8989 69.1068 21.2489 69.1748 21.6377 69.1748C21.9831 69.1748 22.2879 69.1226 22.5524 69.0183C22.8168 68.9139 23.0128 68.7717 23.1403 68.5915C23.271 68.4081 23.3363 68.2089 23.3363 67.9939C23.3363 67.7757 23.2741 67.586 23.1497 67.4248C23.0252 67.2604 22.8199 67.1228 22.5337 67.0122C22.3502 66.9395 21.9442 66.8272 21.3157 66.6754C20.6873 66.5205 20.2471 66.3751 19.9951 66.2391C19.6685 66.0652 19.4243 65.8502 19.2625 65.5941C19.1038 65.3349 19.0245 65.0456 19.0245 64.7262C19.0245 64.3753 19.1225 64.0481 19.3185 63.7445C19.5145 63.4378 19.8007 63.2055 20.1771 63.0474C20.5535 62.8893 20.972 62.8102 21.4324 62.8102C21.9395 62.8102 22.3859 62.894 22.7717 63.0616C23.1606 63.226 23.4592 63.4695 23.6677 63.792C23.8761 64.1144 23.9881 64.4796 24.0036 64.8875L23.1357 64.9539C23.089 64.5144 22.9304 64.1824 22.6597 63.9579C22.3921 63.7335 21.9955 63.6212 21.4697 63.6212C20.9222 63.6212 20.5224 63.724 20.2704 63.9295C20.0216 64.1318 19.8971 64.3769 19.8971 64.6646C19.8971 64.9144 19.9858 65.1199 20.1631 65.2811C20.3373 65.4424 20.7915 65.6084 21.5257 65.7791C22.263 65.9467 22.7686 66.0937 23.0423 66.2202C23.4406 66.4067 23.7345 66.6438 23.9243 66.9315C24.1141 67.2161 24.209 67.5449 24.209 67.918C24.209 68.2879 24.1048 68.6373 23.8963 68.9661C23.6879 69.2918 23.3877 69.5463 22.9957 69.7297C22.6068 69.9099 22.1682 70 21.6797 70C21.0606 70 20.5411 69.9083 20.1211 69.7249C19.7042 69.5415 19.376 69.2665 19.1365 68.8997C18.9001 68.5298 18.7756 68.1124 18.7632 67.6477Z" fill="#F3EEEE"/>
<path d="M25.1703 66.4952C25.1703 65.3412 25.4752 64.4385 26.0849 63.7872C26.6947 63.1327 27.4817 62.8055 28.4462 62.8055C29.0777 62.8055 29.647 62.9588 30.1541 63.2655C30.6612 63.5722 31.047 64.0006 31.3114 64.5508C31.5789 65.0977 31.7127 65.719 31.7127 66.4146C31.7127 67.1197 31.5727 67.7504 31.2927 68.3069C31.0127 68.8634 30.6161 69.2854 30.1028 69.5732C29.5894 69.8577 29.0357 70 28.4415 70C27.7975 70 27.222 69.8419 26.7149 69.5257C26.2078 69.2096 25.8236 68.778 25.5623 68.231C25.3009 67.684 25.1703 67.1054 25.1703 66.4952ZM26.1036 66.5095C26.1036 67.3473 26.3245 68.0081 26.7662 68.4919C27.2111 68.9724 27.768 69.2127 28.4368 69.2127C29.1181 69.2127 29.6781 68.9693 30.1168 68.4824C30.5585 67.9955 30.7794 67.3046 30.7794 66.4099C30.7794 65.8439 30.6845 65.3507 30.4947 64.9302C30.3081 64.5065 30.0328 64.1793 29.6688 63.9485C29.3079 63.7145 28.9019 63.5975 28.4508 63.5975C27.81 63.5975 27.2578 63.822 26.7942 64.271C26.3338 64.7168 26.1036 65.4629 26.1036 66.5095ZM27.8675 62.502L28.4882 61.174H29.5894L28.5628 62.502H27.8675Z" fill="#F3EEEE"/>
<path d="M37.7652 67.4437L38.6705 67.6761C38.4807 68.4318 38.1385 69.0088 37.6438 69.4072C37.1523 69.8024 36.5503 70 35.8379 70C35.1006 70 34.5002 69.8482 34.0366 69.5447C33.5762 69.238 33.2247 68.7954 32.982 68.2168C32.7424 67.6382 32.6227 67.0169 32.6227 66.353C32.6227 65.6289 32.758 64.9982 33.0287 64.4607C33.3024 63.92 33.6897 63.5106 34.1906 63.2323C34.6946 62.9509 35.2484 62.8102 35.8519 62.8102C36.5363 62.8102 37.1118 62.9873 37.5785 63.3414C38.0451 63.6955 38.3702 64.1935 38.5538 64.8353L37.6625 65.0487C37.5038 64.5429 37.2736 64.1745 36.9719 63.9437C36.6701 63.7129 36.2905 63.5975 35.8332 63.5975C35.3075 63.5975 34.8673 63.7256 34.5126 63.9817C34.1611 64.2378 33.9137 64.5824 33.7706 65.0155C33.6275 65.4455 33.556 65.8898 33.556 66.3482C33.556 66.9395 33.64 67.4564 33.808 67.899C33.9791 68.3385 34.2435 68.6673 34.6013 68.8855C34.959 69.1037 35.3464 69.2127 35.7632 69.2127C36.2703 69.2127 36.6996 69.0641 37.0512 68.7669C37.4027 68.4697 37.6407 68.0287 37.7652 67.4437Z" fill="#F3EEEE"/>
<path d="M39.9444 69.8814V62.9288H40.8497V69.8814H39.9444Z" fill="#F3EEEE"/>
<path d="M42.175 66.4952C42.175 65.3412 42.4799 64.4385 43.0896 63.7872C43.6994 63.1327 44.4865 62.8055 45.4509 62.8055C46.0824 62.8055 46.6517 62.9588 47.1588 63.2655C47.6659 63.5722 48.0517 64.0006 48.3161 64.5508C48.5837 65.0977 48.7174 65.719 48.7174 66.4146C48.7174 67.1197 48.5774 67.7504 48.2974 68.3069C48.0175 68.8634 47.6208 69.2854 47.1075 69.5732C46.5942 69.8577 46.0404 70 45.4462 70C44.8022 70 44.2267 69.8419 43.7196 69.5257C43.2125 69.2096 42.8283 68.778 42.567 68.231C42.3057 67.684 42.175 67.1054 42.175 66.4952ZM43.1083 66.5095C43.1083 67.3473 43.3292 68.0081 43.7709 68.4919C44.2158 68.9724 44.7727 69.2127 45.4416 69.2127C46.1229 69.2127 46.6828 68.9693 47.1215 68.4824C47.5633 67.9955 47.7841 67.3046 47.7841 66.4099C47.7841 65.8439 47.6892 65.3507 47.4995 64.9302C47.3128 64.5065 47.0375 64.1793 46.6735 63.9485C46.3126 63.7145 45.9066 63.5975 45.4556 63.5975C44.8147 63.5975 44.2625 63.822 43.7989 64.271C43.3385 64.7168 43.1083 65.4629 43.1083 66.5095Z" fill="#F3EEEE"/>
<path d="M49.4547 67.7947V66.9363H52.0353V67.7947H49.4547Z" fill="#F3EEEE"/>
<path d="M54.8119 69.8814V63.7493H52.558V62.9288H57.9804V63.7493H55.7172V69.8814H54.8119Z" fill="#F3EEEE"/>
<path d="M58.4611 66.4952C58.4611 65.3412 58.766 64.4385 59.3757 63.7872C59.9855 63.1327 60.7726 62.8055 61.737 62.8055C62.3685 62.8055 62.9378 62.9588 63.4449 63.2655C63.952 63.5722 64.3378 64.0006 64.6022 64.5508C64.8698 65.0977 65.0035 65.719 65.0035 66.4146C65.0035 67.1197 64.8635 67.7504 64.5835 68.3069C64.3035 68.8634 63.9069 69.2854 63.3936 69.5732C62.8803 69.8577 62.3265 70 61.7323 70C61.0883 70 60.5128 69.8419 60.0057 69.5257C59.4986 69.2096 59.1144 68.778 58.8531 68.231C58.5917 67.684 58.4611 67.1054 58.4611 66.4952ZM59.3944 66.5095C59.3944 67.3473 59.6153 68.0081 60.057 68.4919C60.5019 68.9724 61.0588 69.2127 61.7276 69.2127C62.4089 69.2127 62.9689 68.9693 63.4076 68.4824C63.8493 67.9955 64.0702 67.3046 64.0702 66.4099C64.0702 65.8439 63.9753 65.3507 63.7856 64.9302C63.5989 64.5065 63.3236 64.1793 62.9596 63.9485C62.5987 63.7145 62.1927 63.5975 61.7416 63.5975C61.1008 63.5975 60.5486 63.822 60.085 64.271C59.6246 64.7168 59.3944 65.4629 59.3944 66.5095Z" fill="#F3EEEE"/>
<path d="M66.1888 69.8814V62.9288H69.222C69.8318 62.9288 70.2953 62.992 70.6127 63.1185C70.93 63.2418 71.1835 63.4616 71.3733 63.7777C71.5631 64.0939 71.658 64.4433 71.658 64.8258C71.658 65.3191 71.5008 65.7348 71.1866 66.0731C70.8724 66.4114 70.3871 66.6264 69.7307 66.7181C69.9702 66.8351 70.1522 66.9505 70.2767 67.0643C70.5411 67.311 70.7915 67.6192 71.028 67.9891L72.2179 69.8814H71.0793L70.174 68.4349C69.9096 68.0176 69.6918 67.6983 69.5207 67.4769C69.3496 67.2556 69.1956 67.1007 69.0587 67.0122C68.9249 66.9236 68.7881 66.862 68.6481 66.8272C68.5454 66.8051 68.3774 66.794 68.1441 66.794H67.0941V69.8814H66.1888ZM67.0941 65.9973H69.04C69.4538 65.9973 69.7774 65.9546 70.0107 65.8692C70.244 65.7807 70.4213 65.6416 70.5427 65.4519C70.664 65.259 70.7247 65.0503 70.7247 64.8258C70.7247 64.497 70.6064 64.2267 70.37 64.0149C70.1367 63.803 69.7665 63.6971 69.2594 63.6971H67.0941V65.9973Z" fill="#F3EEEE"/>
<path d="M77.9624 67.4437L78.8677 67.6761C78.6779 68.4318 78.3357 69.0088 77.8411 69.4072C77.3495 69.8024 76.7476 70 76.0351 70C75.2978 70 74.6974 69.8482 74.2339 69.5447C73.7734 69.238 73.4219 68.7954 73.1792 68.2168C72.9397 67.6382 72.8199 67.0169 72.8199 66.353C72.8199 65.6289 72.9552 64.9982 73.2259 64.4607C73.4997 63.92 73.887 63.5106 74.3879 63.2323C74.8918 62.9509 75.4456 62.8102 76.0491 62.8102C76.7336 62.8102 77.3091 62.9873 77.7757 63.3414C78.2424 63.6955 78.5675 64.1935 78.751 64.8353L77.8597 65.0487C77.7011 64.5429 77.4709 64.1745 77.1691 63.9437C76.8673 63.7129 76.4878 63.5975 76.0305 63.5975C75.5047 63.5975 75.0645 63.7256 74.7098 63.9817C74.3583 64.2378 74.111 64.5824 73.9679 65.0155C73.8248 65.4455 73.7532 65.8898 73.7532 66.3482C73.7532 66.9395 73.8372 67.4564 74.0052 67.899C74.1763 68.3385 74.4407 68.6673 74.7985 68.8855C75.1563 69.1037 75.5436 69.2127 75.9605 69.2127C76.4676 69.2127 76.8969 69.0641 77.2484 68.7669C77.6 68.4697 77.838 68.0287 77.9624 67.4437Z" fill="#F3EEEE"/>
<path d="M80.0063 69.8814V62.9288H84.9528V63.7493H80.9116V65.8787H84.6962V66.6944H80.9116V69.061H85.1115V69.8814H80.0063Z" fill="#F3EEEE"/>
<path d="M86.3621 69.8814V62.9288H88.7187C89.2507 62.9288 89.6566 62.962 89.9366 63.0284C90.3286 63.1201 90.6631 63.2861 90.9399 63.5264C91.3008 63.8362 91.5699 64.233 91.7472 64.7168C91.9277 65.1973 92.0179 65.7475 92.0179 66.3672C92.0179 66.8952 91.9572 67.3631 91.8359 67.771C91.7146 68.1788 91.559 68.5172 91.3693 68.7859C91.1795 69.0515 90.971 69.2617 90.7439 69.4167C90.52 69.5684 90.2477 69.6838 89.9273 69.7629C89.61 69.8419 89.2444 69.8814 88.8307 69.8814H86.3621ZM87.2674 69.061H88.728C89.1791 69.061 89.5322 69.0183 89.7873 68.9329C90.0455 68.8475 90.2508 68.7274 90.4033 68.5725C90.6179 68.3543 90.7844 68.0619 90.9026 67.6951C91.0239 67.3252 91.0846 66.8778 91.0846 66.353C91.0846 65.6258 90.9664 65.0677 90.7299 64.6788C90.4966 64.2868 90.212 64.0243 89.876 63.8916C89.6333 63.7967 89.2429 63.7493 88.7047 63.7493H87.2674V69.061Z" fill="#F3EEEE"/>
<path d="M92.9932 66.4952C92.9932 65.3412 93.2981 64.4385 93.9078 63.7872C94.5176 63.1327 95.3047 62.8055 96.2691 62.8055C96.9006 62.8055 97.4699 62.9588 97.977 63.2655C98.4841 63.5722 98.8699 64.0006 99.1343 64.5508C99.4019 65.0977 99.5356 65.719 99.5356 66.4146C99.5356 67.1197 99.3956 67.7504 99.1156 68.3069C98.8357 68.8634 98.439 69.2854 97.9257 69.5732C97.4124 69.8577 96.8586 70 96.2644 70C95.6204 70 95.0449 69.8419 94.5378 69.5257C94.0307 69.2096 93.6465 68.778 93.3852 68.231C93.1239 67.684 92.9932 67.1054 92.9932 66.4952ZM93.9265 66.5095C93.9265 67.3473 94.1474 68.0081 94.5891 68.4919C95.034 68.9724 95.5909 69.2127 96.2597 69.2127C96.9411 69.2127 97.501 68.9693 97.9397 68.4824C98.3814 67.9955 98.6023 67.3046 98.6023 66.4099C98.6023 65.8439 98.5074 65.3507 98.3177 64.9302C98.131 64.5065 97.8557 64.1793 97.4917 63.9485C97.1308 63.7145 96.7248 63.5975 96.2737 63.5975C95.6329 63.5975 95.0807 63.822 94.6171 64.271C94.1567 64.7168 93.9265 65.4629 93.9265 66.5095Z" fill="#F3EEEE"/>
<path d="M100.721 69.8814V62.9288H103.754C104.364 62.9288 104.827 62.992 105.145 63.1185C105.462 63.2418 105.716 63.4616 105.905 63.7777C106.095 64.0939 106.19 64.4433 106.19 64.8258C106.19 65.3191 106.033 65.7348 105.719 66.0731C105.405 66.4114 104.919 66.6264 104.263 66.7181C104.502 66.8351 104.684 66.9505 104.809 67.0643C105.073 67.311 105.324 67.6192 105.56 67.9891L106.75 69.8814H105.611L104.706 68.4349C104.442 68.0176 104.224 67.6983 104.053 67.4769C103.882 67.2556 103.728 67.1007 103.591 67.0122C103.457 66.9236 103.32 66.862 103.18 66.8272C103.077 66.8051 102.91 66.794 102.676 66.794H101.626V69.8814H100.721ZM101.626 65.9973H103.572C103.986 65.9973 104.309 65.9546 104.543 65.8692C104.776 65.7807 104.953 65.6416 105.075 65.4519C105.196 65.259 105.257 65.0503 105.257 64.8258C105.257 64.497 105.139 64.2267 104.902 64.0149C104.669 63.803 104.299 63.6971 103.791 63.6971H101.626V65.9973Z" fill="#F3EEEE"/>
</svg>
